<svg width="302" height="259" viewBox="0 0 302 259" fill="none" xmlns="http://www.w3.org/2000/svg">
<path d="M211.884 214.861V-50.2309C211.884 -74.4678 231.771 -94.9189 256.192 -94.9189C280.612 -94.9189 301.263 -74.4678 301.263 -50.2309V214.861C301.263 239.098 280.636 258.792 256.192 258.792C244.443 258.783 233.178 254.152 224.871 245.915C216.563 237.679 211.893 226.509 211.884 214.861Z" fill="#3E6EE5" fill-opacity="0.49"/>
<path d="M300.849 50.6287V-50.2388C300.849 -74.4126 280.339 -94.8164 255.996 -94.9189H118.827C118.317 -94.918 117.808 -94.889 117.301 -94.8322C21.9891 -92.0244 -55.3003 -13.5955 -55.3003 82.311C-55.3003 179.259 24.859 258.792 122.58 258.792C123.931 258.792 125.267 258.792 126.61 258.737H127.723C128.813 258.737 129.902 258.666 130.983 258.61H131.778C133.082 258.539 134.385 258.46 135.681 258.366L136.731 258.287C137.732 258.208 138.734 258.121 139.728 258.027L140.904 257.908C142.169 257.782 143.425 257.64 144.681 257.49L145.539 257.38L148.536 256.97L149.92 256.757L152.71 256.307L153.783 256.126C154.952 255.921 156.113 255.7 157.273 255.479L158.816 255.164L161.058 254.69L162.648 254.336C163.737 254.091 164.826 253.831 165.907 253.547L167.696 253.089C168.316 252.932 168.936 252.774 169.556 252.6L171.448 252.08C172.021 251.922 172.593 251.757 173.165 251.583C174.278 251.26 175.391 250.92 176.504 250.573L177.919 250.124C178.635 249.887 179.342 249.659 180.05 249.414L181.274 248.996C183.723 248.155 186.148 247.258 188.548 246.307L189.407 245.967C191.983 244.916 194.527 243.825 197.039 242.694L197.421 242.521L199.965 241.33L200.171 241.227C202.795 239.976 205.378 238.661 207.922 237.284L208.145 237.165C210.705 235.772 213.23 234.321 215.721 232.812L215.777 232.772C265.576 202.502 299.331 148.815 301.175 87.6506C301.223 87.1379 301.263 86.6174 301.263 86.0732V50.9679L300.849 50.6287ZM122.58 170.165C99.0975 170.148 76.5819 160.886 59.9781 144.412C43.3744 127.938 34.0401 105.6 34.0253 82.3031C34.0253 33.0722 73.7274 -6.30791 122.58 -6.30791C144.858 -6.40525 166.361 1.79918 182.833 16.6813C199.305 31.5634 209.544 52.0384 211.524 74.0533V81.9404H211.905V82.3189C211.905 130.785 172.211 170.165 122.58 170.165Z" fill="#3E6EE5"/>
</svg>
