<svg width="338" height="205" viewBox="0 0 338 205" fill="none" xmlns="http://www.w3.org/2000/svg">
<path d="M267.185 43.9308V309.023C267.185 333.26 287.071 353.711 311.492 353.711C335.913 353.711 356.563 333.26 356.563 309.023V43.9308C356.563 19.6939 335.937 0 311.492 0C299.743 0.00836182 288.479 4.6394 280.171 12.8763C271.864 21.1131 267.193 32.2822 267.185 43.9308Z" fill="#3E6EE5" fill-opacity="0.49"/>
<path d="M356.15 208.163V309.03C356.15 333.204 335.639 353.608 311.296 353.711H174.128C173.618 353.71 173.108 353.681 172.601 353.624C77.2894 350.816 0 272.387 0 176.481C0 79.533 80.1593 0 177.88 0C179.232 0 180.567 0 181.911 0.0552063H183.024C184.113 0.0552063 185.202 0.12619 186.283 0.181396H187.078C188.382 0.25238 189.686 0.331238 190.982 0.425873L192.031 0.50473C193.033 0.583618 194.034 0.67038 195.028 0.765015L196.205 0.883331C197.469 1.00955 198.725 1.15149 199.981 1.30133L200.84 1.41177L203.837 1.8219L205.22 2.03482L208.01 2.48441L209.084 2.66583C210.252 2.87088 211.413 3.09167 212.574 3.31253L214.116 3.62802L216.358 4.10123L217.948 4.45615C219.037 4.70065 220.126 4.96094 221.207 5.24487L222.996 5.70233C223.616 5.86008 224.236 6.01779 224.856 6.19131L226.748 6.71188C227.321 6.86963 227.893 7.03522 228.466 7.20874C229.579 7.5321 230.692 7.87128 231.805 8.21829L233.22 8.66788C233.935 8.90448 234.643 9.13318 235.35 9.37766L236.575 9.79572C239.023 10.637 241.448 11.5335 243.849 12.4852L244.707 12.8243C247.283 13.876 249.827 14.967 252.339 16.0974L252.721 16.271L255.265 17.4619L255.472 17.5644C258.095 18.8159 260.679 20.1303 263.223 21.508L263.445 21.6263C266.005 23.0197 268.531 24.4709 271.022 25.9799L271.077 26.0194C320.876 56.2899 354.631 109.977 356.476 171.141C356.523 171.654 356.563 172.174 356.563 172.719V207.824L356.15 208.163ZM177.88 88.6268C154.398 88.6435 131.882 97.906 115.278 114.38C98.6747 130.854 89.3403 153.192 89.3256 176.489C89.3256 225.72 129.028 265.1 177.88 265.1C200.158 265.197 221.662 256.993 238.133 242.11C254.605 227.228 264.844 206.753 266.824 184.738V176.851H267.206V176.473C267.206 128.007 227.512 88.6268 177.88 88.6268Z" fill="#3E6EE5"/>
</svg>
