<svg width="29" height="28" viewBox="0 0 29 28" fill="none" xmlns="http://www.w3.org/2000/svg">
<path opacity="0.3" d="M21.0815 24.432V3.5245C21.0815 1.61296 22.6518 0 24.5802 0C26.5085 0 28.1391 1.61296 28.1391 3.5245V24.432C28.1391 26.3435 26.5104 27.8968 24.5802 27.8968C23.6525 27.8961 22.763 27.5309 22.107 26.8813C21.451 26.2316 21.0822 25.3507 21.0815 24.432Z" fill="#0B84FF"/>
<path d="M28.139 11.4798V3.52449C28.139 1.61792 26.5185 0.00869692 24.5952 0.000610352H13.7577C13.7174 0.000683878 13.6771 0.00296824 13.6371 0.00745287C6.10656 0.2289 0 6.4145 0 13.9786C0 21.6247 6.33331 27.8974 14.0541 27.8974C14.1609 27.8974 14.2664 27.8974 14.3726 27.893H14.4605C14.5466 27.893 14.6326 27.8874 14.718 27.8831H14.7809C14.8839 27.8775 14.9869 27.8713 15.0893 27.8638L15.1722 27.8576C15.2513 27.8514 15.3305 27.8445 15.409 27.8371L15.5019 27.8277C15.6018 27.8178 15.7011 27.8066 15.8003 27.7948L15.8681 27.7861L16.1049 27.7537L16.2142 27.7369L16.4347 27.7015L16.5195 27.6871C16.6118 27.671 16.7035 27.6536 16.7952 27.6361L16.9171 27.6113L17.0942 27.5739L17.2198 27.5459C17.3059 27.5267 17.3919 27.5061 17.4774 27.4837L17.6187 27.4477C17.6677 27.4352 17.7167 27.4228 17.7657 27.4091L17.9152 27.368C17.9604 27.3556 18.0056 27.3425 18.0508 27.3289C18.1388 27.3034 18.2267 27.2766 18.3146 27.2492L18.4265 27.2138C18.483 27.1951 18.5389 27.1771 18.5948 27.1578L18.6915 27.1248C18.885 27.0585 19.0766 26.9878 19.2662 26.9127L19.3341 26.886C19.5376 26.803 19.7386 26.717 19.9371 26.6278L19.9672 26.6141L20.1682 26.5202L20.1846 26.5121C20.3918 26.4134 20.596 26.3097 20.797 26.2011L20.8146 26.1918C21.0168 26.0819 21.2163 25.9674 21.4132 25.8484L21.4176 25.8453C25.3521 23.4579 28.0191 19.2236 28.1648 14.3997C28.1686 14.3592 28.1717 14.3182 28.1717 14.2753V11.5066L28.139 11.4798ZM14.0541 20.9075C12.1988 20.9062 10.4199 20.1757 9.10803 18.8764C7.79619 17.5771 7.05869 15.8153 7.05753 13.9779C7.05753 10.0951 10.1943 6.98927 14.0541 6.98927C15.8143 6.98159 17.5133 7.62867 18.8147 8.8024C20.1161 9.97614 20.9251 11.591 21.0815 13.3273V13.9493H21.1117V13.9792C21.1117 17.8016 17.9755 20.9075 14.0541 20.9075Z" fill="#0B84FF"/>
</svg>
