<svg width="89" height="42" viewBox="0 0 89 42" fill="none" xmlns="http://www.w3.org/2000/svg">
<g clip-path="url(#clip0_78_198)">
<path d="M7.05753 3.46478V38.3502C7.05753 40.2618 5.48724 41.815 3.49861 41.815C2.57093 41.8144 1.68143 41.4491 1.02546 40.7995C0.369482 40.1499 0.000665485 39.269 0 38.3502L0 3.46478C0.000665485 2.54607 0.369482 1.66517 1.02546 1.01554C1.68143 0.365909 2.57093 0.00065905 3.49861 0C5.48912 0 7.05753 1.55511 7.05753 3.46478Z" fill="#0B84FF"/>
<path d="M21.2098 41.7553C17.5309 41.5762 14.3338 40.0229 12.1649 37.3344C10.1744 34.8257 9.1499 31.5401 9.1499 27.8365C9.1499 20.1306 14.6993 13.9182 21.4554 13.9182C24.8327 13.9182 27.9696 15.2923 30.2616 17.8607C32.5536 20.3097 33.7602 23.6551 33.7602 27.2393C33.7602 29.1508 32.1899 30.7638 30.2616 30.7638H16.5686C17.1716 32.6753 18.4988 34.7063 21.5753 34.8257H21.9371C22.8416 34.8257 24.5306 34.8257 26.0387 33.7508C26.6206 33.4007 27.2881 33.2147 27.9689 33.2128C29.1152 33.2128 30.2609 33.7508 30.9211 34.7679C31.3438 35.3053 31.5247 35.9628 31.5247 36.6197C31.5247 37.7549 30.9211 38.9493 29.896 39.6055C27.001 41.5171 23.9848 41.8156 22.2958 41.8156C21.8134 41.815 21.4516 41.815 21.2098 41.7553ZM25.9753 23.7745C25.0702 21.9824 23.4421 20.8478 21.4528 20.8478C19.7638 20.8478 18.1954 22.0421 17.23 23.7745H25.9753Z" fill="#0B84FF"/>
<path d="M60.3915 17.4427C60.3935 17.9619 60.2694 18.4739 60.0298 18.9356L50.0169 39.8438C49.4736 41.0381 48.2073 41.815 46.8801 41.815C46.2143 41.8157 45.5617 41.6313 44.9965 41.2828C44.4313 40.9343 43.9762 40.4357 43.683 39.8438L33.6702 18.9363C33.4305 18.4745 33.3065 17.9625 33.3084 17.4434C33.3084 16.1296 34.032 14.8749 35.2989 14.2771C35.7675 14.0463 36.283 13.9238 36.8064 13.9188C38.1336 13.9188 39.3999 14.6958 40.0035 15.9498L46.8801 30.2263L53.6964 15.9492C54.2994 14.6952 55.5663 13.9182 56.8929 13.9182C57.4163 13.9231 57.9318 14.0456 58.4004 14.2765C59.6711 14.8743 60.3915 16.129 60.3915 17.4427Z" fill="#0B84FF"/>
<path opacity="0.3" d="M80.0303 38.3502V17.4427C80.0303 15.5312 81.6006 13.9182 83.5289 13.9182C85.4572 13.9182 87.0878 15.5312 87.0878 17.4427V38.3502C87.0878 40.2618 85.4591 41.815 83.5289 41.815C82.6012 41.8144 81.7117 41.4491 81.0557 40.7995C80.3998 40.1499 80.0309 39.269 80.0303 38.3502Z" fill="#0B84FF"/>
<path d="M87.4565 14.6043H87.1375V14.4096H88.0099V14.6043H87.6908V15.4646H87.4565V14.6043Z" fill="#0B84FF"/>
<path d="M88.1331 14.4096H88.4628L88.7141 15.1349H88.7172L88.9528 14.4096H89.2825V15.4671H89.0633V14.7207H89.0602L88.7995 15.4671H88.6186L88.3579 14.7269H88.3548V15.4671H88.1356L88.1331 14.4096Z" fill="#0B84FF"/>
<path d="M87.0878 25.398V17.4427C87.0878 15.5362 85.4672 13.9269 83.5439 13.9188H72.7064C72.6661 13.9189 72.6258 13.9212 72.5858 13.9257C65.0553 14.1471 58.9487 20.3327 58.9487 27.8968C58.9487 35.5429 65.282 41.8156 73.0029 41.8156C73.1096 41.8156 73.2152 41.8156 73.3213 41.8113H73.4093C73.4953 41.8113 73.5814 41.8057 73.6668 41.8013H73.7296C73.8326 41.7957 73.9356 41.7895 74.038 41.782L74.1209 41.7758C74.2001 41.7696 74.2792 41.7628 74.3577 41.7553L74.4507 41.746C74.5505 41.736 74.6498 41.7248 74.749 41.713L74.8169 41.7043L75.0537 41.6719L75.163 41.6552L75.3834 41.6197L75.4682 41.6054C75.5606 41.5892 75.6523 41.5718 75.744 41.5544L75.8658 41.5295L76.043 41.4922L76.1686 41.4642C76.2546 41.4449 76.3407 41.4244 76.4261 41.402L76.5674 41.3659C76.6164 41.3535 76.6654 41.341 76.7144 41.3273L76.8639 41.2863C76.9091 41.2738 76.9543 41.2608 76.9996 41.2471C77.0875 41.2216 77.1754 41.1948 77.2634 41.1675L77.3752 41.132C77.4317 41.1133 77.4876 41.0953 77.5435 41.076L77.6402 41.0431C77.8337 40.9767 78.0253 40.906 78.215 40.8309L78.2828 40.8042C78.4863 40.7213 78.6873 40.6352 78.8858 40.546L78.916 40.5324L79.117 40.4384L79.1333 40.4303C79.3406 40.3316 79.5447 40.228 79.7457 40.1193L79.7633 40.11C79.9655 40.0001 80.1651 39.8856 80.3619 39.7666L80.3663 39.7635C84.3008 37.3761 86.9678 33.1419 87.1135 28.3179C87.1173 28.2775 87.1204 28.2364 87.1204 28.1935V25.4248L87.0878 25.398ZM73.0029 34.8257C71.1475 34.8244 69.3686 34.0939 68.0568 32.7946C66.7449 31.4953 66.0074 29.7335 66.0063 27.8962C66.0063 24.0134 69.1431 20.9075 73.0029 20.9075C74.7631 20.8998 76.462 21.5469 77.7634 22.7206C79.0648 23.8944 79.8738 25.5092 80.0302 27.2455V27.8676H80.0604V27.8974C80.0604 31.7199 76.9242 34.8257 73.0029 34.8257Z" fill="#0B84FF"/>
</g>
<defs>
<clipPath id="clip0_78_198">
<rect width="89" height="42" fill="white"/>
</clipPath>
</defs>
</svg>
