<svg width="24" height="24" viewBox="0 0 24 24" fill="none" xmlns="http://www.w3.org/2000/svg">
<path d="M17.9009 20.7545V2.99399C17.9009 1.37018 19.2332 0 20.8694 0C22.5055 0 23.889 1.37018 23.889 2.99399V20.7545C23.889 22.3783 22.5071 23.6978 20.8694 23.6978C20.0822 23.6972 19.3275 23.3869 18.771 22.8351C18.2144 22.2833 17.9014 21.5349 17.9009 20.7545Z" fill="#3E6EE5" fill-opacity="0.49"/>
<path d="M23.8612 9.75135V2.99347C23.8612 1.37388 22.487 0.00686938 20.8561 0H11.6661C11.632 6.24593e-05 11.5978 0.00200298 11.5639 0.00581259C5.17821 0.193928 0 5.44848 0 11.874C0 18.3693 5.37049 23.6978 11.9175 23.6978C12.0081 23.6978 12.0976 23.6978 12.1876 23.6941H12.2622C12.3351 23.6941 12.4081 23.6893 12.4805 23.6856H12.5338C12.6211 23.6809 12.7085 23.6756 12.7953 23.6692L12.8656 23.664C12.9327 23.6587 12.9998 23.6529 13.0664 23.6465L13.1453 23.6386C13.2299 23.6301 13.3141 23.6206 13.3983 23.6106L13.4558 23.6032L13.6566 23.5757L13.7493 23.5615L13.9362 23.5313L14.0081 23.5192C14.0864 23.5054 14.1642 23.4906 14.2419 23.4758L14.3453 23.4547L14.4955 23.423L14.602 23.3992C14.675 23.3828 14.7479 23.3654 14.8204 23.3464L14.9402 23.3157C14.9818 23.3052 15.0233 23.2946 15.0648 23.283L15.1916 23.2481C15.23 23.2375 15.2683 23.2264 15.3067 23.2148C15.3812 23.1931 15.4558 23.1704 15.5304 23.1472L15.6252 23.1171C15.6731 23.1012 15.7205 23.0859 15.7679 23.0695L15.8499 23.0415C16.014 22.9851 16.1764 22.9251 16.3373 22.8613L16.3948 22.8386C16.5674 22.7681 16.7378 22.695 16.9061 22.6193L16.9317 22.6077L17.1021 22.5279L17.116 22.521C17.2918 22.4372 17.4649 22.3491 17.6353 22.2568L17.6502 22.2489C17.8217 22.1555 17.9909 22.0583 18.1578 21.9572L18.1615 21.9545C21.4979 19.9265 23.7595 16.3296 23.883 12.2317C23.8862 12.1974 23.8889 12.1625 23.8889 12.126V9.77407L23.8612 9.75135ZM11.9175 17.76C10.3443 17.7589 8.8358 17.1383 7.72338 16.0346C6.61097 14.9309 5.98559 13.4343 5.9846 11.8735C5.9846 8.5751 8.64455 5.93673 11.9175 5.93673C13.4101 5.93021 14.8508 6.47989 15.9544 7.47695C17.0579 8.47402 17.7439 9.8458 17.8766 11.3207V11.8492H17.9022V11.8745C17.9022 15.1216 15.2427 17.76 11.9175 17.76Z" fill="#3E6EE5"/>
</svg>
