<svg width="1172" height="1360" viewBox="0 0 1172 1360" fill="none" xmlns="http://www.w3.org/2000/svg">
<path d="M1.62549 559.624V171.793C1.62549 78.8459 82.274 0.394229 177.989 0H717.333C719.338 0.0035845 721.342 0.11495 723.335 0.33358C1098.1 11.1294 1402 312.684 1402 681.44C1402 1054.2 1086.81 1360 702.579 1360C697.265 1360 692.013 1360 686.73 1359.79H682.354C678.072 1359.79 673.789 1359.51 669.538 1359.3H666.412C661.286 1359.03 656.159 1358.73 651.064 1358.36L646.937 1358.06C642.999 1357.76 639.06 1357.42 635.153 1357.06L630.526 1356.6C625.556 1356.12 620.617 1355.57 615.678 1355L612.302 1354.57L600.518 1352.99L595.079 1352.18L584.107 1350.45L579.887 1349.75C575.292 1348.96 570.728 1348.11 566.164 1347.26L560.1 1346.05L551.285 1344.23L545.033 1342.87C540.75 1341.93 536.468 1340.93 532.217 1339.83L525.183 1338.07C522.745 1337.47 520.307 1336.86 517.869 1336.19L510.429 1334.19C508.179 1333.59 505.928 1332.95 503.677 1332.28C499.301 1331.04 494.925 1329.74 490.549 1328.4L484.984 1326.67C482.171 1325.76 479.389 1324.88 476.607 1323.94L471.793 1322.34C462.165 1319.1 452.631 1315.65 443.191 1312L439.815 1310.69C429.687 1306.65 419.684 1302.45 409.806 1298.11L408.306 1297.44L398.303 1292.86L397.49 1292.47C387.175 1287.65 377.016 1282.6 367.013 1277.3L366.137 1276.85C356.072 1271.49 346.142 1265.91 336.347 1260.11L336.129 1259.96C140.322 1143.57 7.59583 937.144 0.34375 701.971C0.15625 700 0 697.998 0 695.906V560.928L1.62549 559.624ZM702.579 1019.23C794.911 1019.17 883.442 983.556 948.727 920.215C1014.01 856.874 1050.72 770.984 1050.77 681.41C1050.77 492.119 894.666 340.705 702.579 340.705C614.98 340.331 530.43 371.876 465.664 429.097C400.898 486.318 360.638 565.044 352.852 649.69V680.015H351.352V681.471C351.352 867.82 507.428 1019.23 702.579 1019.23Z" fill="white"/>
</svg>
